<svg id="visual" viewBox="0 0 900 600" width="900" height="600" xmlns="http://www.w3.org/2000/svg" xmlns:xlink="http://www.w3.org/1999/xlink" version="1.1"><rect x="0" y="0" width="900" height="600" fill="#8CED65"></rect><defs><linearGradient id="grad1_0" x1="33.3%" y1="0%" x2="100%" y2="100%"><stop offset="20%" stop-color="#419520" stop-opacity="1"></stop><stop offset="80%" stop-color="#419520" stop-opacity="1"></stop></linearGradient></defs><defs><linearGradient id="grad1_1" x1="33.3%" y1="0%" x2="100%" y2="100%"><stop offset="20%" stop-color="#419520" stop-opacity="1"></stop><stop offset="80%" stop-color="#66c043" stop-opacity="1"></stop></linearGradient></defs><defs><linearGradient id="grad1_2" x1="33.3%" y1="0%" x2="100%" y2="100%"><stop offset="20%" stop-color="#8ced65" stop-opacity="1"></stop><stop offset="80%" stop-color="#66c043" stop-opacity="1"></stop></linearGradient></defs><defs><linearGradient id="grad2_0" x1="0%" y1="0%" x2="66.7%" y2="100%"><stop offset="20%" stop-color="#419520" stop-opacity="1"></stop><stop offset="80%" stop-color="#419520" stop-opacity="1"></stop></linearGradient></defs><defs><linearGradient id="grad2_1" x1="0%" y1="0%" x2="66.7%" y2="100%"><stop offset="20%" stop-color="#66c043" stop-opacity="1"></stop><stop offset="80%" stop-color="#419520" stop-opacity="1"></stop></linearGradient></defs><defs><linearGradient id="grad2_2" x1="0%" y1="0%" x2="66.7%" y2="100%"><stop offset="20%" stop-color="#66c043" stop-opacity="1"></stop><stop offset="80%" stop-color="#8ced65" stop-opacity="1"></stop></linearGradient></defs><g transform="translate(900, 0)"><path d="M0 432.7C-39.9 434 -79.7 435.4 -112 417.9C-144.2 400.4 -168.8 364.1 -195.5 338.6C-222.2 313.2 -251 298.6 -278.6 278.6C-306.2 258.6 -332.7 233.1 -353.3 204C-373.9 174.9 -388.6 142 -400.9 107.4C-413.1 72.8 -422.9 36.4 -432.7 0L0 0Z" fill="#79d654"></path><path d="M0 288.4C-26.6 289.4 -53.2 290.3 -74.7 278.6C-96.1 267 -112.5 242.7 -130.3 225.7C-148.1 208.8 -167.3 199.1 -185.7 185.7C-204.2 172.4 -221.8 155.4 -235.6 136C-249.3 116.6 -259.1 94.7 -267.2 71.6C-275.4 48.5 -281.9 24.3 -288.4 0L0 0Z" fill="#54aa32"></path><path d="M0 144.2C-13.3 144.7 -26.6 145.1 -37.3 139.3C-48.1 133.5 -56.3 121.4 -65.2 112.9C-74.1 104.4 -83.7 99.5 -92.9 92.9C-102.1 86.2 -110.9 77.7 -117.8 68C-124.6 58.3 -129.5 47.3 -133.6 35.8C-137.7 24.3 -141 12.1 -144.2 0L0 0Z" fill="#419520"></path></g><g transform="translate(0, 600)"><path d="M0 -432.7C38.9 -431.6 77.8 -430.5 111.3 -415.3C144.7 -400.2 172.7 -371 201.5 -349C230.3 -327 259.8 -312.1 292.7 -292.7C325.7 -273.4 361.9 -249.7 374.7 -216.3C387.5 -183 376.8 -140.1 382.5 -102.5C388.3 -64.8 410.5 -32.4 432.7 0L0 0Z" fill="#79d654"></path><path d="M0 -288.4C25.9 -287.7 51.9 -287 74.2 -276.9C96.5 -266.8 115.2 -247.4 134.3 -232.7C153.5 -218 173.2 -208 195.2 -195.2C217.1 -182.3 241.3 -166.4 249.8 -144.2C258.3 -122 251.2 -93.4 255 -68.3C258.8 -43.2 273.6 -21.6 288.4 0L0 0Z" fill="#54aa32"></path><path d="M0 -144.2C13 -143.9 25.9 -143.5 37.1 -138.4C48.2 -133.4 57.6 -123.7 67.2 -116.3C76.8 -109 86.6 -104 97.6 -97.6C108.6 -91.1 120.6 -83.2 124.9 -72.1C129.2 -61 125.6 -46.7 127.5 -34.2C129.4 -21.6 136.8 -10.8 144.2 0L0 0Z" fill="#419520"></path></g></svg>