<svg id="visual" viewBox="0 0 960 540" width="960" height="540" xmlns="http://www.w3.org/2000/svg" xmlns:xlink="http://www.w3.org/1999/xlink" version="1.1"><g stroke-width="1" stroke-linejoin="bevel"><path d="M529.3 263L560.3 328L613 275Z" fill="#b7b7b7" stroke="#b7b7b7"></path><path d="M560.3 328L627 354L613 275Z" fill="#cdcdcd" stroke="#cdcdcd"></path><path d="M781.7 277L657 206L613 275Z" fill="#b1b1b1" stroke="#b1b1b1"></path><path d="M613 275L657 206L529.3 263Z" fill="#b4b4b4" stroke="#b4b4b4"></path><path d="M515.3 140L461.7 196L529.3 263Z" fill="#b9b9b9" stroke="#b9b9b9"></path><path d="M422.7 393L494.3 429L560.3 328Z" fill="#bfbfbf" stroke="#bfbfbf"></path><path d="M494.3 429L609 418L560.3 328Z" fill="#bcbcbc" stroke="#bcbcbc"></path><path d="M560.3 328L609 418L627 354Z" fill="#b4b4b4" stroke="#b4b4b4"></path><path d="M657 206L515.3 140L529.3 263Z" fill="#b4b4b4" stroke="#b4b4b4"></path><path d="M422.7 393L560.3 328L529.3 263Z" fill="#b4b4b4" stroke="#b4b4b4"></path><path d="M461.7 196L397.7 285L529.3 263Z" fill="#b9b9b9" stroke="#b9b9b9"></path><path d="M397.7 285L422.7 393L529.3 263Z" fill="#b1b1b1" stroke="#b1b1b1"></path><path d="M609 418L726.7 412L627 354Z" fill="#c7c7c7" stroke="#c7c7c7"></path><path d="M627 354L781.7 277L613 275Z" fill="#c5c5c5" stroke="#c5c5c5"></path><path d="M610 540L726.7 412L609 418Z" fill="#cacaca" stroke="#cacaca"></path><path d="M657 206L561.3 78L515.3 140Z" fill="#bfbfbf" stroke="#bfbfbf"></path><path d="M515.3 140L399.7 112L461.7 196Z" fill="#bfbfbf" stroke="#bfbfbf"></path><path d="M781.7 277L736.7 158L657 206Z" fill="#bfbfbf" stroke="#bfbfbf"></path><path d="M657 206L625 75L561.3 78Z" fill="#c5c5c5" stroke="#c5c5c5"></path><path d="M726.7 412L765.7 359L627 354Z" fill="#b9b9b9" stroke="#b9b9b9"></path><path d="M765.7 359L781.7 277L627 354Z" fill="#cacaca" stroke="#cacaca"></path><path d="M736.7 158L625 75L657 206Z" fill="#b4b4b4" stroke="#b4b4b4"></path><path d="M315 320L390.7 423L422.7 393Z" fill="#b7b7b7" stroke="#b7b7b7"></path><path d="M422.7 393L390.7 423L494.3 429Z" fill="#c7c7c7" stroke="#c7c7c7"></path><path d="M436.7 0L399.7 112L515.3 140Z" fill="#c7c7c7" stroke="#c7c7c7"></path><path d="M313 214L315 253L397.7 285Z" fill="#bfbfbf" stroke="#bfbfbf"></path><path d="M397.7 285L315 320L422.7 393Z" fill="#b4b4b4" stroke="#b4b4b4"></path><path d="M765.7 359L815.3 308L781.7 277Z" fill="#bfbfbf" stroke="#bfbfbf"></path><path d="M781.7 277L854.3 186L736.7 158Z" fill="#b7b7b7" stroke="#b7b7b7"></path><path d="M822.3 374L815.3 308L765.7 359Z" fill="#bcbcbc" stroke="#bcbcbc"></path><path d="M313 214L397.7 285L461.7 196Z" fill="#bfbfbf" stroke="#bfbfbf"></path><path d="M441.7 540L570.3 540L494.3 429Z" fill="#b1b1b1" stroke="#b1b1b1"></path><path d="M494.3 429L570.3 540L609 418Z" fill="#c5c5c5" stroke="#c5c5c5"></path><path d="M315 253L315 320L397.7 285Z" fill="#bfbfbf" stroke="#bfbfbf"></path><path d="M570.3 540L610 540L609 418Z" fill="#b4b4b4" stroke="#b4b4b4"></path><path d="M399.7 112L313 214L461.7 196Z" fill="#b9b9b9" stroke="#b9b9b9"></path><path d="M315 253L243.3 302L315 320Z" fill="#b4b4b4" stroke="#b4b4b4"></path><path d="M890.3 122L735.7 75L736.7 158Z" fill="#cacaca" stroke="#cacaca"></path><path d="M736.7 158L735.7 75L625 75Z" fill="#c5c5c5" stroke="#c5c5c5"></path><path d="M881.3 487L822.3 374L726.7 412Z" fill="#cacaca" stroke="#cacaca"></path><path d="M726.7 412L822.3 374L765.7 359Z" fill="#b9b9b9" stroke="#b9b9b9"></path><path d="M436.7 0L351 99L399.7 112Z" fill="#b7b7b7" stroke="#b7b7b7"></path><path d="M399.7 112L351 99L313 214Z" fill="#b7b7b7" stroke="#b7b7b7"></path><path d="M353 474L441.7 540L390.7 423Z" fill="#b9b9b9" stroke="#b9b9b9"></path><path d="M390.7 423L441.7 540L494.3 429Z" fill="#b9b9b9" stroke="#b9b9b9"></path><path d="M315 320L353 474L390.7 423Z" fill="#b1b1b1" stroke="#b1b1b1"></path><path d="M561.3 78L508.3 0L515.3 140Z" fill="#cdcdcd" stroke="#cdcdcd"></path><path d="M645 0L508.3 0L561.3 78Z" fill="#b1b1b1" stroke="#b1b1b1"></path><path d="M645 0L561.3 78L625 75Z" fill="#bfbfbf" stroke="#bfbfbf"></path><path d="M735.7 75L645 0L625 75Z" fill="#b9b9b9" stroke="#b9b9b9"></path><path d="M815.3 308L854.3 186L781.7 277Z" fill="#c2c2c2" stroke="#c2c2c2"></path><path d="M960 261L854.3 186L815.3 308Z" fill="#bcbcbc" stroke="#bcbcbc"></path><path d="M508.3 0L436.7 0L515.3 140Z" fill="#b1b1b1" stroke="#b1b1b1"></path><path d="M610 540L760.7 540L726.7 412Z" fill="#b1b1b1" stroke="#b1b1b1"></path><path d="M313 214L243.3 302L315 253Z" fill="#bfbfbf" stroke="#bfbfbf"></path><path d="M315 320L198.3 440L353 474Z" fill="#b9b9b9" stroke="#b9b9b9"></path><path d="M218.3 150L243.3 302L313 214Z" fill="#cacaca" stroke="#cacaca"></path><path d="M834.3 0L776.7 0L735.7 75Z" fill="#b4b4b4" stroke="#b4b4b4"></path><path d="M735.7 75L776.7 0L645 0Z" fill="#b7b7b7" stroke="#b7b7b7"></path><path d="M198.3 440L323 540L353 474Z" fill="#b4b4b4" stroke="#b4b4b4"></path><path d="M353 474L323 540L441.7 540Z" fill="#c7c7c7" stroke="#c7c7c7"></path><path d="M960 168L890.3 122L854.3 186Z" fill="#b7b7b7" stroke="#b7b7b7"></path><path d="M854.3 186L890.3 122L736.7 158Z" fill="#cacaca" stroke="#cacaca"></path><path d="M314 0L236.3 119L351 99Z" fill="#cacaca" stroke="#cacaca"></path><path d="M351 99L236.3 119L313 214Z" fill="#bcbcbc" stroke="#bcbcbc"></path><path d="M108.7 254L202.3 344L243.3 302Z" fill="#cdcdcd" stroke="#cdcdcd"></path><path d="M243.3 302L202.3 344L315 320Z" fill="#b7b7b7" stroke="#b7b7b7"></path><path d="M760.7 540L881.3 487L726.7 412Z" fill="#bfbfbf" stroke="#bfbfbf"></path><path d="M960 326L960 261L815.3 308Z" fill="#c7c7c7" stroke="#c7c7c7"></path><path d="M236.3 119L218.3 150L313 214Z" fill="#b1b1b1" stroke="#b1b1b1"></path><path d="M760.7 540L845.3 540L881.3 487Z" fill="#b7b7b7" stroke="#b7b7b7"></path><path d="M436.7 0L314 0L351 99Z" fill="#b7b7b7" stroke="#b7b7b7"></path><path d="M890.3 122L834.3 0L735.7 75Z" fill="#c5c5c5" stroke="#c5c5c5"></path><path d="M960 326L815.3 308L822.3 374Z" fill="#b4b4b4" stroke="#b4b4b4"></path><path d="M890.3 122L960 0L834.3 0Z" fill="#b9b9b9" stroke="#b9b9b9"></path><path d="M960 454L960 326L822.3 374Z" fill="#bfbfbf" stroke="#bfbfbf"></path><path d="M202.3 344L198.3 440L315 320Z" fill="#cacaca" stroke="#cacaca"></path><path d="M960 261L960 168L854.3 186Z" fill="#c5c5c5" stroke="#c5c5c5"></path><path d="M960 168L960 125L890.3 122Z" fill="#c5c5c5" stroke="#c5c5c5"></path><path d="M960 540L960 454L881.3 487Z" fill="#b9b9b9" stroke="#b9b9b9"></path><path d="M881.3 487L960 454L822.3 374Z" fill="#cacaca" stroke="#cacaca"></path><path d="M314 0L250.3 0L236.3 119Z" fill="#c5c5c5" stroke="#c5c5c5"></path><path d="M88.7 92L144.7 190L218.3 150Z" fill="#b7b7b7" stroke="#b7b7b7"></path><path d="M198.3 440L219.3 540L323 540Z" fill="#b4b4b4" stroke="#b4b4b4"></path><path d="M88.7 92L218.3 150L236.3 119Z" fill="#cdcdcd" stroke="#cdcdcd"></path><path d="M218.3 150L144.7 190L243.3 302Z" fill="#b7b7b7" stroke="#b7b7b7"></path><path d="M202.3 344L144.7 393L198.3 440Z" fill="#c2c2c2" stroke="#c2c2c2"></path><path d="M198.3 440L141.7 486L219.3 540Z" fill="#c7c7c7" stroke="#c7c7c7"></path><path d="M108.7 254L144.7 393L202.3 344Z" fill="#c5c5c5" stroke="#c5c5c5"></path><path d="M0 218L108.7 254L144.7 190Z" fill="#c2c2c2" stroke="#c2c2c2"></path><path d="M144.7 190L108.7 254L243.3 302Z" fill="#bcbcbc" stroke="#bcbcbc"></path><path d="M845.3 540L960 540L881.3 487Z" fill="#c5c5c5" stroke="#c5c5c5"></path><path d="M91.7 540L141.7 486L0 468Z" fill="#b9b9b9" stroke="#b9b9b9"></path><path d="M144.7 393L141.7 486L198.3 440Z" fill="#cdcdcd" stroke="#cdcdcd"></path><path d="M960 125L960 0L890.3 122Z" fill="#cdcdcd" stroke="#cdcdcd"></path><path d="M125.7 0L88.7 92L236.3 119Z" fill="#cdcdcd" stroke="#cdcdcd"></path><path d="M250.3 0L125.7 0L236.3 119Z" fill="#c5c5c5" stroke="#c5c5c5"></path><path d="M0 468L141.7 486L144.7 393Z" fill="#c5c5c5" stroke="#c5c5c5"></path><path d="M141.7 486L91.7 540L219.3 540Z" fill="#c7c7c7" stroke="#c7c7c7"></path><path d="M0 363L144.7 393L108.7 254Z" fill="#bcbcbc" stroke="#bcbcbc"></path><path d="M0 218L0 293L108.7 254Z" fill="#c7c7c7" stroke="#c7c7c7"></path><path d="M0 218L144.7 190L88.7 92Z" fill="#c2c2c2" stroke="#c2c2c2"></path><path d="M0 80L0 218L88.7 92Z" fill="#c5c5c5" stroke="#c5c5c5"></path><path d="M0 293L0 363L108.7 254Z" fill="#b9b9b9" stroke="#b9b9b9"></path><path d="M0 363L0 468L144.7 393Z" fill="#c5c5c5" stroke="#c5c5c5"></path><path d="M0 0L0 80L88.7 92Z" fill="#b9b9b9" stroke="#b9b9b9"></path><path d="M0 468L0 540L91.7 540Z" fill="#c5c5c5" stroke="#c5c5c5"></path><path d="M125.7 0L0 0L88.7 92Z" fill="#c2c2c2" stroke="#c2c2c2"></path></g></svg>