<svg id="visual" viewBox="0 0 900 600" width="1500" height="1000" xmlns="http://www.w3.org/2000/svg" xmlns:xlink="http://www.w3.org/1999/xlink" version="1.1"><path d="M449 600L458.7 585.7C468.3 571.3 487.7 542.7 497.8 514.2C508 485.7 509 457.3 497.2 428.8C485.3 400.3 460.7 371.7 445 343C429.3 314.3 422.7 285.7 436.2 257C449.7 228.3 483.3 199.7 489.8 171.2C496.3 142.7 475.7 114.3 467.7 85.8C459.7 57.3 464.3 28.7 466.7 14.3L469 0L900 0L900 14.3C900 28.7 900 57.3 900 85.8C900 114.3 900 142.7 900 171.2C900 199.7 900 228.3 900 257C900 285.7 900 314.3 900 343C900 371.7 900 400.3 900 428.8C900 457.3 900 485.7 900 514.2C900 542.7 900 571.3 900 585.7L900 600Z" fill="#FFFFFF" stroke-linecap="round" stroke-linejoin="miter"></path></svg>